<?xml version="1.0" encoding="utf-8"?>
<!-- Generator: Adobe Illustrator 17.0.0, SVG Export Plug-In . SVG Version: 6.00 Build 0)  -->
<!DOCTYPE svg PUBLIC "-//W3C//DTD SVG 1.1//EN" "http://www.w3.org/Graphics/SVG/1.1/DTD/svg11.dtd">
<svg version="1.1" id="Layer_1" xmlns="http://www.w3.org/2000/svg" xmlns:xlink="http://www.w3.org/1999/xlink" x="0px" y="0px"
	 width="35.016px" height="35.016px" viewBox="0 0 35.016 35.016" enable-background="new 0 0 35.016 35.016" xml:space="preserve">
<path fill="none" stroke="#FFFFFF" stroke-miterlimit="10" d="M17.508,34.516c9.395,0,17.008-7.615,17.008-17.008
	c0-9.393-7.613-17.007-17.008-17.007C8.114,0.5,0.5,8.115,0.5,17.507C0.5,26.9,8.114,34.516,17.508,34.516"/>
<path fill="#FFFFFF" d="M12.748,24.621H9.433V14.012h3.315V24.621z M11.005,12.685h-0.024c-1.2,0-1.978-0.811-1.978-1.838
	c0-1.048,0.801-1.842,2.025-1.842c1.223,0,1.975,0.792,1.999,1.839C13.028,11.871,12.252,12.685,11.005,12.685z M26.012,24.621
	h-3.759v-5.49c0-1.437-0.587-2.417-1.881-2.417c-0.989,0-1.539,0.662-1.795,1.3c-0.096,0.228-0.081,0.547-0.081,0.867v5.741h-3.724
	c0,0,0.048-9.725,0-10.609h3.724v1.665c0.22-0.728,1.41-1.767,3.31-1.767c2.355,0,4.206,1.526,4.206,4.812V24.621z"/>
</svg>
