<?xml version="1.0" encoding="utf-8"?>
<!-- Generator: Adobe Illustrator 17.0.0, SVG Export Plug-In . SVG Version: 6.00 Build 0)  -->
<!DOCTYPE svg PUBLIC "-//W3C//DTD SVG 1.1//EN" "http://www.w3.org/Graphics/SVG/1.1/DTD/svg11.dtd">
<svg version="1.1" id="Layer_1" xmlns="http://www.w3.org/2000/svg" xmlns:xlink="http://www.w3.org/1999/xlink" x="0px" y="0px"
	 width="35.016px" height="35.016px" viewBox="0 0 35.016 35.016" enable-background="new 0 0 35.016 35.016" xml:space="preserve">
<path fill="none" stroke="#FFFFFF" stroke-miterlimit="10" d="M17.508,34.516c9.393,0,17.008-7.614,17.008-17.008
	c0-9.393-7.615-17.008-17.008-17.008C8.115,0.5,0.5,8.115,0.5,17.508C0.5,26.901,8.115,34.516,17.508,34.516"/>
<path fill="#FFFFFF" d="M13.405,14.628h1.758v-1.709c0-0.753,0.019-1.916,0.566-2.635c0.577-0.762,1.368-1.28,2.729-1.28
	c2.218,0,3.152,0.316,3.152,0.316l-0.439,2.605c0,0-0.733-0.212-1.417-0.212c-0.684,0-1.296,0.245-1.296,0.929v1.986h2.804
	l-0.196,2.544h-2.608v8.839h-3.296v-8.839h-1.758V14.628z"/>
</svg>
