<?xml version="1.0" encoding="utf-8"?>
<!-- Generator: Adobe Illustrator 17.0.0, SVG Export Plug-In . SVG Version: 6.00 Build 0)  -->
<!DOCTYPE svg PUBLIC "-//W3C//DTD SVG 1.1//EN" "http://www.w3.org/Graphics/SVG/1.1/DTD/svg11.dtd">
<svg version="1.1" id="Layer_1" xmlns="http://www.w3.org/2000/svg" xmlns:xlink="http://www.w3.org/1999/xlink" x="0px" y="0px"
	 width="35.016px" height="35.016px" viewBox="0 0 35.016 35.016" enable-background="new 0 0 35.016 35.016" xml:space="preserve">
<path fill="none" stroke="#FFFFFF" stroke-miterlimit="10" d="M17.508,34.516c9.394,0,17.008-7.615,17.008-17.008
	c0-9.393-7.614-17.007-17.008-17.007C8.113,0.5,0.5,8.115,0.5,17.507C0.5,26.9,8.113,34.516,17.508,34.516"/>
<path fill="#FFFFFF" d="M22.727,9.004H12.293c-1.812,0-3.287,1.474-3.287,3.287v3.472v6.963c0,1.813,1.475,3.287,3.287,3.287h10.434
	c1.813,0,3.287-1.474,3.287-3.287v-6.963v-3.472C26.014,10.478,24.539,9.004,22.727,9.004z M23.67,10.964l0.376-0.002v0.375v2.508
	l-2.874,0.009l-0.01-2.883L23.67,10.964z M15.083,15.762c0.544-0.754,1.428-1.248,2.427-1.248c0.999,0,1.883,0.494,2.427,1.248
	c0.356,0.492,0.567,1.094,0.567,1.746c0,1.65-1.344,2.993-2.994,2.993s-2.993-1.343-2.993-2.993
	C14.517,16.856,14.728,16.254,15.083,15.762z M24.356,22.725c0,0.899-0.73,1.629-1.63,1.629H12.293c-0.899,0-1.63-0.73-1.63-1.629
	v-6.963h2.539c-0.22,0.54-0.343,1.128-0.343,1.746c0,2.564,2.086,4.651,4.65,4.651c2.564,0,4.65-2.087,4.65-4.651
	c0-0.617-0.124-1.206-0.343-1.746h2.539V22.725z"/>
</svg>
